<svg width="146" height="28" viewBox="0 0 146 28" fill="none" xmlns="http://www.w3.org/2000/svg">
<path d="M6.96912 13.72C6.96912 12.68 7.19412 11.755 7.64412 10.945C8.09412 10.125 8.71912 9.49 9.51912 9.04C10.3291 8.58 11.2441 8.35 12.2641 8.35C13.5141 8.35 14.5841 8.68 15.4741 9.34C16.3641 10 16.9591 10.9 17.2591 12.04H14.4391C14.2291 11.6 13.9291 11.265 13.5391 11.035C13.1591 10.805 12.7241 10.69 12.2341 10.69C11.4441 10.69 10.8041 10.965 10.3141 11.515C9.82412 12.065 9.57912 12.8 9.57912 13.72C9.57912 14.64 9.82412 15.375 10.3141 15.925C10.8041 16.475 11.4441 16.75 12.2341 16.75C12.7241 16.75 13.1591 16.635 13.5391 16.405C13.9291 16.175 14.2291 15.84 14.4391 15.4H17.2591C16.9591 16.54 16.3641 17.44 15.4741 18.1C14.5841 18.75 13.5141 19.075 12.2641 19.075C11.2441 19.075 10.3291 18.85 9.51912 18.4C8.71912 17.94 8.09412 17.305 7.64412 16.495C7.19412 15.685 6.96912 14.76 6.96912 13.72ZM19.0699 14.8C19.0699 13.94 19.2299 13.185 19.5499 12.535C19.8799 11.885 20.3249 11.385 20.8849 11.035C21.4449 10.685 22.0699 10.51 22.7599 10.51C23.3499 10.51 23.8649 10.63 24.3049 10.87C24.7549 11.11 25.0999 11.425 25.3399 11.815V10.63H27.9049V19H25.3399V17.815C25.0899 18.205 24.7399 18.52 24.2899 18.76C23.8499 19 23.3349 19.12 22.7449 19.12C22.0649 19.12 21.4449 18.945 20.8849 18.595C20.3249 18.235 19.8799 17.73 19.5499 17.08C19.2299 16.42 19.0699 15.66 19.0699 14.8ZM25.3399 14.815C25.3399 14.175 25.1599 13.67 24.7999 13.3C24.4499 12.93 24.0199 12.745 23.5099 12.745C22.9999 12.745 22.5649 12.93 22.2049 13.3C21.8549 13.66 21.6799 14.16 21.6799 14.8C21.6799 15.44 21.8549 15.95 22.2049 16.33C22.5649 16.7 22.9999 16.885 23.5099 16.885C24.0199 16.885 24.4499 16.7 24.7999 16.33C25.1599 15.96 25.3399 15.455 25.3399 14.815ZM33.0756 12.025C33.3756 11.565 33.7506 11.205 34.2006 10.945C34.6506 10.675 35.1506 10.54 35.7006 10.54V13.255H34.9956C34.3556 13.255 33.8756 13.395 33.5556 13.675C33.2356 13.945 33.0756 14.425 33.0756 15.115V19H30.5106V10.63H33.0756V12.025ZM41.0816 19.12C40.3516 19.12 39.7016 18.995 39.1316 18.745C38.5616 18.495 38.1116 18.155 37.7816 17.725C37.4516 17.285 37.2666 16.795 37.2266 16.255H39.7616C39.7916 16.545 39.9266 16.78 40.1666 16.96C40.4066 17.14 40.7016 17.23 41.0516 17.23C41.3716 17.23 41.6166 17.17 41.7866 17.05C41.9666 16.92 42.0566 16.755 42.0566 16.555C42.0566 16.315 41.9316 16.14 41.6816 16.03C41.4316 15.91 41.0266 15.78 40.4666 15.64C39.8666 15.5 39.3666 15.355 38.9666 15.205C38.5666 15.045 38.2216 14.8 37.9316 14.47C37.6416 14.13 37.4966 13.675 37.4966 13.105C37.4966 12.625 37.6266 12.19 37.8866 11.8C38.1566 11.4 38.5466 11.085 39.0566 10.855C39.5766 10.625 40.1916 10.51 40.9016 10.51C41.9516 10.51 42.7766 10.77 43.3766 11.29C43.9866 11.81 44.3366 12.5 44.4266 13.36H42.0566C42.0166 13.07 41.8866 12.84 41.6666 12.67C41.4566 12.5 41.1766 12.415 40.8266 12.415C40.5266 12.415 40.2966 12.475 40.1366 12.595C39.9766 12.705 39.8966 12.86 39.8966 13.06C39.8966 13.3 40.0216 13.48 40.2716 13.6C40.5316 13.72 40.9316 13.84 41.4716 13.96C42.0916 14.12 42.5966 14.28 42.9866 14.44C43.3766 14.59 43.7166 14.84 44.0066 15.19C44.3066 15.53 44.4616 15.99 44.4716 16.57C44.4716 17.06 44.3316 17.5 44.0516 17.89C43.7816 18.27 43.3866 18.57 42.8666 18.79C42.3566 19.01 41.7616 19.12 41.0816 19.12ZM53.1658 13.6C53.7758 13.73 54.2658 14.035 54.6358 14.515C55.0058 14.985 55.1908 15.525 55.1908 16.135C55.1908 17.015 54.8808 17.715 54.2608 18.235C53.6508 18.745 52.7958 19 51.6958 19H46.7908V8.47H51.5308C52.6008 8.47 53.4358 8.715 54.0358 9.205C54.6458 9.695 54.9508 10.36 54.9508 11.2C54.9508 11.82 54.7858 12.335 54.4558 12.745C54.1358 13.155 53.7058 13.44 53.1658 13.6ZM49.3558 12.73H51.0358C51.4558 12.73 51.7758 12.64 51.9958 12.46C52.2258 12.27 52.3408 11.995 52.3408 11.635C52.3408 11.275 52.2258 11 51.9958 10.81C51.7758 10.62 51.4558 10.525 51.0358 10.525H49.3558V12.73ZM51.2458 16.93C51.6758 16.93 52.0058 16.835 52.2358 16.645C52.4758 16.445 52.5958 16.16 52.5958 15.79C52.5958 15.42 52.4708 15.13 52.2208 14.92C51.9808 14.71 51.6458 14.605 51.2158 14.605H49.3558V16.93H51.2458ZM65.9785 10.63L60.7285 22.975H57.9685L59.8885 18.715L56.4835 10.63H59.3485L61.2835 15.865L63.2035 10.63H65.9785ZM79.5811 8.47V19H77.0161V12.685L74.6611 19H72.5911L70.2211 12.67V19H67.6561V8.47H70.6861L73.6411 15.76L76.5661 8.47H79.5811ZM90.4406 10.63V19H87.8756V17.86C87.6156 18.23 87.2606 18.53 86.8106 18.76C86.3706 18.98 85.8806 19.09 85.3406 19.09C84.7006 19.09 84.1356 18.95 83.6456 18.67C83.1556 18.38 82.7756 17.965 82.5056 17.425C82.2356 16.885 82.1006 16.25 82.1006 15.52V10.63H84.6506V15.175C84.6506 15.735 84.7956 16.17 85.0856 16.48C85.3756 16.79 85.7656 16.945 86.2556 16.945C86.7556 16.945 87.1506 16.79 87.4406 16.48C87.7306 16.17 87.8756 15.735 87.8756 15.175V10.63H90.4406ZM95.598 11.815C95.838 11.425 96.183 11.11 96.633 10.87C97.083 10.63 97.598 10.51 98.178 10.51C98.868 10.51 99.493 10.685 100.053 11.035C100.613 11.385 101.053 11.885 101.373 12.535C101.703 13.185 101.868 13.94 101.868 14.8C101.868 15.66 101.703 16.42 101.373 17.08C101.053 17.73 100.613 18.235 100.053 18.595C99.493 18.945 98.868 19.12 98.178 19.12C97.588 19.12 97.073 19.005 96.633 18.775C96.193 18.535 95.848 18.22 95.598 17.83V19H93.033V7.9H95.598V11.815ZM99.258 14.8C99.258 14.16 99.078 13.66 98.718 13.3C98.368 12.93 97.933 12.745 97.413 12.745C96.903 12.745 96.468 12.93 96.108 13.3C95.758 13.67 95.583 14.175 95.583 14.815C95.583 15.455 95.758 15.96 96.108 16.33C96.468 16.7 96.903 16.885 97.413 16.885C97.923 16.885 98.358 16.7 98.718 16.33C99.078 15.95 99.258 15.44 99.258 14.8ZM103.454 14.8C103.454 13.94 103.614 13.185 103.934 12.535C104.264 11.885 104.709 11.385 105.269 11.035C105.829 10.685 106.454 10.51 107.144 10.51C107.734 10.51 108.249 10.63 108.689 10.87C109.139 11.11 109.484 11.425 109.724 11.815V10.63H112.289V19H109.724V17.815C109.474 18.205 109.124 18.52 108.674 18.76C108.234 19 107.719 19.12 107.129 19.12C106.449 19.12 105.829 18.945 105.269 18.595C104.709 18.235 104.264 17.73 103.934 17.08C103.614 16.42 103.454 15.66 103.454 14.8ZM109.724 14.815C109.724 14.175 109.544 13.67 109.184 13.3C108.834 12.93 108.404 12.745 107.894 12.745C107.384 12.745 106.949 12.93 106.589 13.3C106.239 13.66 106.064 14.16 106.064 14.8C106.064 15.44 106.239 15.95 106.589 16.33C106.949 16.7 107.384 16.885 107.894 16.885C108.404 16.885 108.834 16.7 109.184 16.33C109.544 15.96 109.724 15.455 109.724 14.815ZM118.299 19.12C117.569 19.12 116.919 18.995 116.349 18.745C115.779 18.495 115.329 18.155 114.999 17.725C114.669 17.285 114.484 16.795 114.444 16.255H116.979C117.009 16.545 117.144 16.78 117.384 16.96C117.624 17.14 117.919 17.23 118.269 17.23C118.589 17.23 118.834 17.17 119.004 17.05C119.184 16.92 119.274 16.755 119.274 16.555C119.274 16.315 119.149 16.14 118.899 16.03C118.649 15.91 118.244 15.78 117.684 15.64C117.084 15.5 116.584 15.355 116.184 15.205C115.784 15.045 115.439 14.8 115.149 14.47C114.859 14.13 114.714 13.675 114.714 13.105C114.714 12.625 114.844 12.19 115.104 11.8C115.374 11.4 115.764 11.085 116.274 10.855C116.794 10.625 117.409 10.51 118.119 10.51C119.169 10.51 119.994 10.77 120.594 11.29C121.204 11.81 121.554 12.5 121.644 13.36H119.274C119.234 13.07 119.104 12.84 118.884 12.67C118.674 12.5 118.394 12.415 118.044 12.415C117.744 12.415 117.514 12.475 117.354 12.595C117.194 12.705 117.114 12.86 117.114 13.06C117.114 13.3 117.239 13.48 117.489 13.6C117.749 13.72 118.149 13.84 118.689 13.96C119.309 14.12 119.814 14.28 120.204 14.44C120.594 14.59 120.934 14.84 121.224 15.19C121.524 15.53 121.679 15.99 121.689 16.57C121.689 17.06 121.549 17.5 121.269 17.89C120.999 18.27 120.604 18.57 120.084 18.79C119.574 19.01 118.979 19.12 118.299 19.12ZM129.154 10.54C130.114 10.54 130.884 10.86 131.464 11.5C132.044 12.13 132.334 13 132.334 14.11V19H129.784V14.455C129.784 13.895 129.639 13.46 129.349 13.15C129.059 12.84 128.669 12.685 128.179 12.685C127.689 12.685 127.299 12.84 127.009 13.15C126.719 13.46 126.574 13.895 126.574 14.455V19H124.009V7.9H126.574V11.755C126.834 11.385 127.189 11.09 127.639 10.87C128.089 10.65 128.594 10.54 129.154 10.54ZM136.156 9.76C135.706 9.76 135.336 9.63 135.046 9.37C134.766 9.1 134.626 8.77 134.626 8.38C134.626 7.98 134.766 7.65 135.046 7.39C135.336 7.12 135.706 6.985 136.156 6.985C136.596 6.985 136.956 7.12 137.236 7.39C137.526 7.65 137.671 7.98 137.671 8.38C137.671 8.77 137.526 9.1 137.236 9.37C136.956 9.63 136.596 9.76 136.156 9.76ZM137.431 10.63V19H134.866V10.63H137.431ZM142.605 12.025C142.905 11.565 143.28 11.205 143.73 10.945C144.18 10.675 144.68 10.54 145.23 10.54V13.255H144.525C143.885 13.255 143.405 13.395 143.085 13.675C142.765 13.945 142.605 14.425 142.605 15.115V19H140.04V10.63H142.605V12.025Z" fill="white"/>
<rect y="19" width="65" height="3" fill="#1ABDB3"/>
</svg>
